<svg width="12" height="12" viewBox="0 0 12 12" fill="none" xmlns="http://www.w3.org/2000/svg">
<path d="M7.78022 7.314L4.68601 4.21978H7.78022V7.314Z" fill="white"/>
<path d="M4.21978 7.78022V4.686L7.314 7.78022H4.21978Z" fill="white"/>
<path d="M4.02666 3.56044L2.57611 2.10989H5.86345L7.314 3.56044H4.02666Z" fill="white"/>
<path d="M6.13655 9.89011L4.68601 8.43956H7.97334L9.42389 9.89011H6.13655Z" fill="white"/>
<path d="M1.91677 1.45055L0.466224 0H3.75356L5.20411 1.45055H1.91677Z" fill="white"/>
<path d="M8.24645 12L6.7959 10.5495H10.0832L11.5338 12H8.24645Z" fill="white"/>
<path d="M2.10989 5.86345V2.57611L3.56044 4.02666V7.314L2.10989 5.86345Z" fill="white"/>
<path d="M8.43956 7.97334L8.43956 4.686L9.89011 6.13655V9.42389L8.43956 7.97334Z" fill="white"/>
<path d="M0 3.75356V0.466224L1.45055 1.91677V5.20411L0 3.75356Z" fill="white"/>
<path d="M10.5495 10.0832V6.79589L12 8.24644V11.5338L10.5495 10.0832Z" fill="white"/>
</svg>
